<?xml version="1.0" standalone="no"?>
<!DOCTYPE svg PUBLIC "-//W3C//DTD SVG 20010904//EN"
 "http://www.w3.org/TR/2001/REC-SVG-20010904/DTD/svg10.dtd">
<svg version="1.0" xmlns="http://www.w3.org/2000/svg"
 width="1280.000000pt" height="765.000000pt" viewBox="0 0 1280.000000 765.000000"
 preserveAspectRatio="xMidYMid meet">
<g transform="translate(0.000000,765.000000) scale(0.100000,-0.100000)"
fill="#000000" stroke="none">
<path d="M6184 7638 c-12 -18 -17 -241 -7 -306 16 -102 28 -61 33 113 4 122 2
175 -6 188 -9 15 -14 16 -20 5z"/>
<path d="M1050 7626 c0 -4 7 -18 16 -31 15 -23 15 -28 -5 -68 -23 -48 -26
-104 -10 -191 6 -32 7 -62 2 -67 -11 -11 -239 -30 -463 -38 -176 -6 -185 -7
-185 -26 0 -35 110 -41 402 -21 198 14 257 15 269 5 10 -8 14 -35 14 -100 0
-53 4 -91 11 -95 6 -3 9 -19 5 -35 -3 -16 -3 -42 0 -58 5 -25 12 -30 38 -33
23 -2 30 -7 28 -20 -4 -27 27 -22 80 11 35 22 64 57 122 144 68 104 126 167
153 167 5 0 17 6 27 13 17 13 17 16 3 44 -25 47 -134 142 -280 243 -73 50
-153 107 -179 126 -27 20 -48 33 -48 30z m120 -141 c18 -19 32 -36 29 -38 -2
-2 -28 -1 -56 1 -47 3 -53 7 -53 26 0 24 17 46 35 46 6 0 26 -16 45 -35z m20
-135 c0 -5 -4 -10 -10 -10 -5 0 -10 5 -10 10 0 6 5 10 10 10 6 0 10 -4 10 -10z
m86 -45 c3 -8 3 -19 0 -24 -10 -16 -36 -1 -36 20 0 22 28 26 36 4z m172 -137
c-5 -15 -55 -35 -64 -25 -4 3 -4 13 -1 22 8 19 71 21 65 3z"/>
<path d="M12250 7574 c-383 -49 -857 -63 -1410 -40 -217 8 -521 18 -675 22
-321 8 -310 10 -303 -73 3 -27 1 -131 -3 -233 -5 -102 -15 -338 -24 -525 -8
-187 -15 -485 -15 -662 l0 -323 371 0 372 0 -7 -82 c-8 -98 -31 -215 -46 -233
-6 -7 -31 -18 -55 -24 -39 -10 -45 -15 -51 -46 -3 -19 -3 -51 1 -71 6 -36 7
-36 48 -30 23 3 340 2 705 -3 364 -5 674 -6 689 -2 40 11 51 35 31 68 -9 16
-25 30 -35 32 -9 2 -23 10 -29 19 -9 12 -26 14 -98 9 -47 -3 -86 -3 -86 1 -6
198 -3 301 9 315 18 22 187 23 386 2 191 -20 344 -20 372 0 49 34 54 149 24
570 -31 432 -42 689 -44 1014 -1 194 -6 305 -12 306 -5 1 -57 -4 -115 -11z
m66 -357 c1 -198 10 -456 23 -672 26 -438 41 -783 33 -803 -5 -13 -51 -14
-376 -8 -204 3 -571 13 -816 21 -245 8 -638 18 -875 21 -295 5 -432 10 -437
18 -21 31 -7 530 37 1353 8 155 12 295 9 310 -4 18 -1 33 8 40 10 8 152 6 538
-8 592 -21 1017 -24 1260 -9 161 10 390 34 480 50 25 4 61 8 80 9 l35 1 1
-323z m-1506 -1477 c141 -9 747 -40 778 -40 10 0 12 -35 10 -162 l-3 -163
-150 2 c-297 5 -868 23 -873 27 -3 3 3 61 12 128 9 68 16 139 16 159 0 37 14
59 40 59 8 0 85 -4 170 -10z m239 -386 c211 -10 417 -14 554 -11 238 6 243 5
218 -50 l-12 -25 -667 7 c-423 5 -672 11 -679 17 -14 11 -18 60 -6 71 11 11
238 8 592 -9z"/>
<path d="M10890 7292 c0 -10 20 -38 45 -62 25 -24 45 -53 45 -64 0 -11 -16
-43 -37 -73 -20 -29 -34 -56 -30 -59 12 -12 77 49 97 91 23 47 20 60 -22 114
-20 26 -77 71 -90 71 -4 0 -8 -8 -8 -18z"/>
<path d="M10027 7270 c-36 -28 -43 -77 -22 -143 20 -64 72 -147 91 -147 20 0
19 3 -30 93 -62 115 -63 126 -21 167 19 19 35 38 35 42 0 15 -27 8 -53 -12z"/>
<path d="M10695 7249 c-3 -8 -6 -57 -8 -109 l-2 -95 57 0 c32 0 63 6 70 13 9
9 1 12 -39 12 -57 0 -70 14 -57 64 5 22 12 26 40 26 43 0 45 18 2 22 -28 2
-33 7 -33 28 0 24 2 25 50 22 67 -5 48 16 -23 25 -39 4 -53 2 -57 -8z"/>
<path d="M10141 7214 c-45 -57 -35 -178 16 -190 13 -4 29 -2 34 3 7 7 2 12
-13 16 -69 18 -63 137 8 169 31 14 31 28 0 28 -14 0 -33 -11 -45 -26z"/>
<path d="M10358 7219 c-10 -5 -23 -20 -29 -32 -9 -18 -9 -20 2 -9 34 32 78 -9
65 -61 -12 -49 -60 -44 -75 7 l-9 31 -1 -37 c-1 -30 4 -41 25 -55 24 -15 29
-15 53 -2 31 18 49 76 35 116 -12 35 -44 55 -66 42z"/>
<path d="M10495 7220 c-11 -18 -16 -105 -7 -135 7 -24 15 -31 40 -33 64 -6
102 42 82 104 -18 55 -94 97 -115 64z m73 -43 c32 -34 32 -65 -1 -90 -36 -28
-49 -14 -55 58 -4 49 -3 55 15 55 11 0 29 -10 41 -23z"/>
<path d="M11111 7203 c-13 -26 -18 -182 -6 -185 17 -5 34 63 34 135 1 66 -9
84 -28 50z"/>
<path d="M4535 6813 c10 -16 27 -39 39 -51 28 -32 116 -96 122 -90 9 10 -87
127 -120 147 -48 30 -62 27 -41 -6z"/>
<path d="M7887 6579 c-48 -25 -133 -111 -215 -217 -59 -77 -62 -82 -38 -82 15
0 46 18 79 48 151 129 253 220 265 235 33 39 -28 49 -91 16z"/>
<path d="M6055 6461 c-228 -82 -388 -353 -402 -682 -8 -180 30 -333 110 -445
35 -49 38 -58 52 -185 22 -186 35 -226 96 -293 27 -30 51 -63 51 -73 0 -10 -5
-45 -12 -79 -13 -58 -12 -64 18 -164 18 -56 32 -120 32 -141 0 -46 21 -60 122
-84 122 -29 250 -12 297 39 22 23 23 31 17 98 -4 56 -1 90 14 148 22 85 25
146 9 200 -17 56 -6 86 36 100 55 18 81 62 114 194 26 101 40 133 96 226 107
174 110 186 110 385 -1 166 -1 172 -34 267 -81 235 -259 430 -447 488 -85 26
-209 27 -279 1z m328 -81 c124 -46 235 -157 307 -305 61 -125 74 -189 75 -350
0 -166 -13 -215 -88 -339 -76 -126 -96 -170 -121 -266 -28 -107 -46 -137 -94
-157 -39 -16 -125 -11 -149 9 -31 26 -10 217 46 419 16 57 34 123 40 147 7 24
18 42 26 42 22 0 44 28 38 50 -3 12 -18 27 -34 35 -15 8 -31 24 -34 35 -6 18
-9 19 -22 8 -13 -10 -19 -7 -42 21 l-27 33 -17 -23 -16 -24 -21 24 c-29 34
-41 14 -38 -59 3 -55 3 -55 -27 -58 -39 -3 -88 28 -118 75 -13 21 -32 52 -43
68 l-19 30 -5 -55 c-6 -70 -26 -76 -74 -24 l-35 38 10 -45 c6 -24 37 -124 69
-221 60 -181 84 -285 95 -418 8 -98 -1 -111 -68 -101 -26 5 -50 4 -53 -1 -3
-5 8 -21 25 -37 46 -43 109 -54 284 -50 l152 4 5 -35 c4 -19 12 -45 18 -57 16
-29 15 -38 -4 -57 -12 -13 -38 -16 -120 -16 -98 0 -104 -1 -104 -20 0 -12 10
-25 25 -32 45 -21 29 -37 -46 -47 -104 -13 -45 -47 97 -57 113 -8 134 -15 134
-48 0 -34 -38 -46 -145 -46 -52 0 -97 -4 -100 -10 -10 -15 14 -50 34 -50 10 0
24 -7 31 -15 11 -13 5 -15 -46 -14 -72 1 -105 10 -114 29 -4 8 -23 47 -43 86
-40 79 -46 117 -21 153 14 20 15 34 5 109 -8 65 -15 90 -28 97 -10 6 -34 26
-54 45 -47 45 -67 112 -75 245 -8 137 -17 165 -75 237 -70 87 -79 107 -90 203
-16 149 18 363 81 503 38 83 109 182 163 226 123 101 291 125 450 66z m-259
-782 c65 -55 101 -57 154 -5 21 20 45 37 55 37 36 0 35 -32 -4 -195 -47 -192
-62 -295 -57 -393 3 -94 -9 -107 -96 -98 -32 3 -64 10 -71 16 -7 6 -15 53 -19
112 -7 122 -30 228 -85 401 -23 70 -41 130 -41 132 0 3 8 5 18 5 9 0 26 7 36
15 32 24 57 18 110 -27z m301 -948 c0 -9 -11 -16 -27 -18 -30 -4 -36 6 -16 26
16 16 43 11 43 -8z"/>
<path d="M1033 6411 c-34 -22 -41 -38 -45 -111 l-3 -45 -85 1 c-47 1 -175 3
-285 5 -193 4 -275 -2 -275 -21 0 -19 119 -32 363 -39 224 -7 260 -10 275 -25
14 -14 17 -34 15 -106 -1 -93 1 -97 42 -81 29 12 45 -6 45 -50 0 -32 -5 -42
-24 -51 -28 -12 -40 -34 -25 -44 17 -10 175 72 291 153 62 42 134 89 162 105
65 35 32 38 -42 3 -30 -14 -60 -25 -67 -25 -17 0 -26 39 -15 60 13 25 34 31
130 36 46 3 92 10 102 15 30 16 20 35 -24 49 -24 7 -94 38 -155 70 -62 32
-133 61 -158 65 -26 3 -61 15 -78 25 -51 30 -106 34 -144 11z m147 -400 c5
-11 10 -29 10 -41 0 -31 -44 -24 -48 8 -7 48 18 69 38 33z"/>
<path d="M1032 5467 c-63 -44 -63 -52 0 -275 20 -72 21 -84 8 -92 -23 -15 -73
-12 -199 10 -109 19 -174 19 -187 -1 -13 -21 11 -52 53 -71 34 -15 83 -22 197
-29 129 -9 153 -13 167 -29 23 -27 43 -140 42 -235 0 -44 3 -85 9 -92 5 -7 6
-32 2 -59 -5 -37 -4 -46 7 -42 16 5 30 31 61 112 13 33 32 64 42 70 11 6 33
26 50 45 16 18 64 59 105 91 138 105 171 151 171 234 0 40 -4 46 -42 71 -23
15 -94 69 -157 120 -131 103 -209 157 -262 179 -34 14 -38 14 -67 -7z m123
-249 c51 -57 73 -94 61 -105 -22 -23 -126 87 -126 133 0 35 13 30 65 -28z
m162 -27 c68 -50 81 -68 57 -78 -38 -14 -144 77 -144 124 0 17 7 14 87 -46z
m111 -187 c-5 -25 -35 -41 -49 -27 -9 9 -9 16 1 28 17 21 52 20 48 -1z m-88
-37 c8 -14 11 -29 7 -33 -11 -11 -47 26 -47 48 0 26 21 18 40 -15z m-80 -69
l0 -21 -26 24 c-31 29 -56 74 -46 83 11 12 72 -61 72 -86z"/>
<path d="M4555 5485 c-5 -2 -41 -6 -78 -10 -75 -7 -84 -22 -26 -42 37 -13 129
-17 178 -7 32 7 40 24 19 42 -14 11 -77 23 -93 17z"/>
<path d="M7610 5161 c0 -23 52 -59 171 -120 119 -60 179 -76 179 -47 0 20 -12
28 -158 101 -138 68 -192 87 -192 66z"/>
<path d="M9643 5115 c-26 -19 -30 -35 -8 -35 22 0 19 -46 -5 -70 -11 -11 -35
-23 -52 -27 -29 -6 -30 -7 -13 -20 18 -13 18 -15 -2 -57 -12 -24 -35 -59 -51
-77 -16 -19 -34 -54 -41 -79 -7 -25 -29 -67 -49 -94 -20 -27 -43 -57 -50 -66
-12 -16 23 -17 550 -24 577 -7 917 -18 1163 -37 105 -8 160 -7 224 2 92 13
144 9 356 -22 130 -20 151 -21 301 -9 199 15 234 10 266 -36 l23 -34 5 33 5
32 70 -1 c39 0 147 -4 241 -9 160 -7 173 -7 197 11 15 10 26 24 27 29 0 23
-106 146 -282 329 -104 106 -188 201 -188 210 0 12 -10 16 -43 16 -23 0 -58 4
-77 10 -18 5 -36 6 -39 2 -4 -4 -22 -8 -41 -8 -158 -5 -447 -26 -545 -39 -97
-14 -175 -16 -415 -12 -262 5 -336 10 -655 47 -292 34 -406 42 -605 47 -217 4
-248 3 -267 -12z m374 -41 c8 -20 -26 -65 -63 -84 -34 -17 -271 -17 -289 1 -6
6 -3 22 10 47 20 36 22 37 90 43 39 3 110 6 158 7 72 2 89 -1 94 -14z m241 -5
c27 -10 28 -25 2 -66 l-20 -33 -104 0 c-115 0 -134 8 -117 52 19 50 68 70 156
61 33 -3 70 -9 83 -14z m232 -34 c35 -9 46 -16 48 -34 6 -40 -14 -51 -92 -50
-111 0 -150 10 -154 37 -4 26 13 51 43 62 22 9 86 3 155 -15z m1454 -1 c9 -3
16 -12 16 -20 0 -8 9 -14 20 -14 11 0 20 7 20 15 0 21 40 28 133 23 101 -5
165 -36 238 -116 65 -72 58 -82 -60 -81 -100 0 -177 11 -193 27 -18 18 -4 24
64 31 l63 7 -67 6 c-55 6 -98 19 -150 46 -5 2 -8 -6 -8 -18 0 -22 0 -22 -212
-21 -117 1 -287 -1 -378 -4 -182 -7 -199 -3 -203 49 l-2 29 125 3 c69 2 195
12 280 23 159 19 286 26 314 15z m-1134 -33 c98 -16 106 -19 114 -44 7 -18 6
-31 -1 -38 -15 -15 -298 -25 -307 -10 -5 8 9 11 46 11 61 0 98 8 98 21 0 5
-43 9 -95 9 -103 0 -116 9 -75 50 25 25 78 26 220 1z m388 -34 c6 -49 -10 -57
-119 -57 -98 0 -100 0 -109 26 -17 43 1 53 98 57 130 5 127 6 130 -26z m-1329
-13 c49 -6 61 -10 61 -24 0 -26 -19 -30 -151 -30 l-119 0 16 -25 c15 -24 21
-25 105 -25 73 0 91 -3 96 -16 8 -21 -23 -84 -40 -84 -10 0 -13 -8 -10 -23 8
-40 -19 -56 -84 -51 -60 5 -58 1 16 -28 l24 -9 -22 -22 c-20 -21 -30 -22 -150
-21 -71 1 -136 6 -145 11 -15 8 -14 13 9 47 14 20 34 55 46 78 l20 40 79 -7
c52 -5 85 -3 99 5 38 20 12 30 -74 30 -91 0 -97 4 -84 56 23 82 129 116 308
98z m334 -19 c57 -23 -35 -48 -138 -39 -81 7 -99 18 -69 41 15 12 39 14 104
10 47 -3 93 -9 103 -12z m261 -25 c7 -7 -19 -10 -81 -10 -86 0 -112 7 -95 25
10 10 163 -2 176 -15z m1531 -11 c25 -6 49 -17 55 -24 21 -25 -28 -36 -189
-42 l-159 -6 -17 27 c-11 16 -14 31 -9 36 9 8 68 14 212 18 35 1 83 -3 107 -9z
m-790 -34 l0 -30 -115 0 c-103 0 -115 2 -118 18 -9 44 1 48 120 45 l113 -3 0
-30z m429 13 c28 -39 6 -46 -169 -53 -168 -7 -218 0 -223 29 -9 44 -3 46 192
46 180 0 185 -1 200 -22z m-704 -13 c0 -14 -7 -28 -16 -32 -15 -6 -200 12
-236 23 -10 3 -18 9 -18 14 0 14 29 18 153 19 l117 1 0 -25z m-734 -19 c9 -24
-23 -85 -51 -96 -15 -6 -76 -10 -136 -10 -123 0 -124 1 -89 70 22 44 28 45
183 48 67 2 89 -1 93 -12z m288 1 c16 -12 17 -18 7 -49 -15 -44 -26 -48 -165
-48 l-109 0 6 40 c9 66 16 70 136 70 74 0 113 -4 125 -13z m253 -23 c37 -9 95
-19 128 -22 52 -6 60 -10 63 -29 6 -39 -31 -44 -216 -33 -92 6 -173 13 -179
15 -20 7 -15 34 12 60 29 30 89 33 192 9z m1770 -56 c75 -78 193 -224 193
-238 0 -5 -4 -11 -9 -15 -6 -3 -204 2 -442 12 -429 17 -432 18 -446 40 -27 41
-12 53 71 53 52 0 83 -5 105 -17 25 -15 35 -16 61 -6 25 9 58 9 153 -2 161
-19 288 -19 334 0 20 8 34 18 31 20 -3 3 -77 10 -164 15 -87 6 -173 14 -189
19 -27 7 -30 12 -29 44 1 21 -2 37 -6 37 -10 0 -30 47 -30 72 0 20 4 20 103
14 75 -4 111 -2 137 8 19 7 40 14 46 15 6 0 42 -32 81 -71z m-427 39 c32 -16
50 -64 30 -77 -8 -6 -28 -10 -45 -11 -27 -2 -27 -2 -5 -6 42 -7 80 -25 80 -38
0 -29 -329 -29 -358 -1 -15 16 21 25 118 33 l105 8 -65 6 c-36 4 -95 7 -132 8
-57 1 -69 4 -78 22 -20 36 -6 49 52 50 29 0 73 4 98 8 71 13 173 12 200 -2z
m-870 -23 c11 -11 12 -19 4 -32 -9 -14 -30 -17 -119 -20 -132 -3 -161 12 -114
59 20 20 28 21 118 15 63 -5 101 -12 111 -22z m468 4 c7 -7 12 -22 12 -34 0
-21 -5 -22 -107 -26 -60 -2 -157 -2 -216 0 -91 4 -109 7 -117 23 -7 13 -6 22
6 33 13 14 47 16 213 16 140 0 200 -3 209 -12z m-1228 -58 c42 -27 -68 -59
-202 -60 -62 0 -69 5 -58 35 5 14 19 22 46 26 64 10 198 9 214 -1z m-302 -26
c6 -40 -22 -49 -150 -48 -124 0 -145 7 -133 43 5 18 16 21 88 24 164 7 192 4
195 -19z m640 13 c149 -19 109 -32 -87 -29 -96 1 -177 5 -180 8 -3 3 3 12 13
20 24 17 121 17 254 1z m407 -18 c13 -20 -7 -24 -105 -24 -100 1 -117 5 -105
24 8 15 202 15 210 0z m425 1 c24 -7 23 -7 -10 -13 -61 -11 -274 -19 -303 -12
-35 9 -35 23 1 28 48 7 286 5 312 -3z m-1175 -60 c8 -25 16 -25 39 1 17 21 23
21 160 15 240 -11 275 -16 282 -38 3 -11 2 -24 -3 -28 -14 -13 -740 3 -754 17
-24 24 76 48 218 52 44 1 53 -2 58 -19z m1217 -1 c40 -11 85 -45 90 -68 3 -12
-33 -14 -212 -12 -247 2 -276 5 -283 31 -8 33 14 49 73 53 126 8 298 6 332 -4z
m-492 -7 c50 -6 55 -9 55 -32 l0 -25 -124 2 c-68 1 -129 7 -134 12 -7 7 -5 17
8 31 19 22 80 25 195 12z m-1197 -9 c57 -9 25 -23 -55 -23 -62 0 -95 12 -66
23 19 8 77 8 121 0z"/>
<path d="M12261 4726 c9 -10 169 -37 197 -33 l27 3 -30 13 c-30 13 -205 29
-194 17z"/>
<path d="M6423 3285 c-150 -42 -247 -131 -267 -247 l-7 -37 -82 6 c-78 5 -84
4 -114 -21 -17 -14 -34 -26 -38 -26 -5 0 -33 12 -64 27 -46 23 -72 28 -152 31
-131 6 -226 -20 -399 -105 -122 -61 -143 -75 -220 -152 -93 -93 -140 -171
-161 -271 -14 -68 -6 -220 15 -278 l15 -43 -52 -23 c-94 -43 -146 -119 -167
-249 -23 -148 28 -301 126 -370 25 -17 46 -40 49 -52 61 -316 198 -532 437
-692 38 -24 73 -53 78 -63 6 -10 10 -48 10 -84 0 -59 -5 -74 -55 -171 -52
-104 -71 -166 -63 -216 3 -21 5 -19 17 16 7 22 35 85 61 140 65 135 76 181 61
252 -7 30 -10 57 -7 60 7 7 169 -26 180 -37 5 -5 -2 -22 -18 -41 -38 -45 -61
-94 -116 -246 -27 -74 -60 -153 -74 -176 -32 -55 -71 -91 -90 -84 -11 4 -16 0
-16 -12 0 -10 -11 -35 -25 -55 -35 -51 -32 -88 4 -53 11 9 14 9 18 0 9 -24 33
-14 33 12 0 35 21 74 60 110 42 40 70 96 114 233 72 225 94 247 296 302 154
42 220 78 311 169 85 86 134 162 194 300 l42 96 49 0 c27 -1 70 -4 96 -9 45
-8 49 -7 76 22 34 36 75 153 92 264 19 120 16 119 150 50 151 -79 231 -104
340 -104 117 0 187 27 249 95 94 105 110 117 148 117 19 0 63 -7 97 -16 78
-20 133 -9 256 52 212 106 324 288 307 498 -9 107 -40 194 -129 365 -44 84
-95 196 -114 248 -42 117 -55 141 -91 174 -41 39 -83 57 -160 71 -71 12 -71
12 -220 -23 -49 -12 -53 -12 -87 14 -19 15 -46 27 -59 27 -13 0 -38 14 -55 30
-27 26 -40 30 -84 30 -29 0 -82 -9 -118 -19 l-65 -19 67 1 c36 1 70 -2 74 -6
5 -5 -8 -23 -29 -40 -49 -42 -72 -100 -103 -253 -30 -152 -62 -227 -107 -251
-100 -52 -307 33 -307 127 0 16 -5 32 -11 35 -7 5 -8 -7 -4 -39 l7 -46 -48 0
c-98 0 -150 -61 -141 -163 4 -43 2 -60 -8 -63 -7 -3 -48 8 -90 25 -42 17 -86
31 -98 31 -21 -1 -21 -2 5 -24 15 -13 64 -38 109 -56 67 -26 87 -30 106 -21
23 11 24 13 17 100 -7 88 -7 89 20 106 71 46 163 21 203 -55 30 -56 32 -174 4
-236 -44 -96 -118 -110 -241 -44 -175 94 -207 102 -258 70 -51 -31 -73 -92
-83 -229 -12 -167 -18 -201 -40 -248 -22 -45 -49 -67 -100 -81 -46 -11 -44
-36 3 -40 29 -2 43 3 73 29 63 56 76 95 86 256 10 170 19 209 59 250 60 62
132 53 259 -31 118 -79 163 -83 234 -25 62 51 83 178 51 313 -6 27 -5 28 17
23 116 -30 130 -31 172 -17 58 21 79 64 117 245 60 284 104 326 284 273 l74
-22 112 23 c158 33 226 18 304 -70 60 -65 144 -276 120 -299 -5 -5 -28 -5 -55
1 -56 12 -114 -5 -140 -41 -11 -14 -25 -62 -33 -108 -31 -180 -80 -199 -284
-113 -65 28 -140 55 -167 61 -109 24 -174 -14 -219 -130 -29 -73 -62 -108 -92
-96 -26 10 -12 -27 16 -41 35 -18 60 2 87 68 39 100 44 109 75 130 66 48 145
37 322 -44 73 -33 103 -41 150 -42 56 0 61 2 81 31 11 17 29 69 39 115 21 98
45 142 86 159 37 15 116 8 160 -15 27 -14 31 -20 25 -42 -7 -29 6 -43 41 -43
17 0 26 -18 59 -117 32 -100 39 -136 43 -230 4 -109 4 -113 -27 -179 -75 -160
-307 -305 -468 -292 -73 6 -81 16 -60 75 71 199 -94 435 -260 372 -46 -17 -69
-47 -99 -126 -49 -129 -81 -143 -211 -99 -124 42 -179 39 -236 -13 -62 -56
-75 -58 -166 -17 -43 20 -92 39 -109 42 -70 14 -150 -43 -176 -125 -41 -129
-24 -152 28 -38 19 39 46 83 61 97 38 36 108 33 198 -9 96 -44 125 -41 187 14
43 39 57 45 94 45 23 0 69 -9 102 -20 104 -36 141 -42 178 -26 29 12 38 26 71
104 45 108 76 142 138 149 104 12 180 -85 180 -232 0 -75 -29 -146 -70 -171
-15 -10 -60 -49 -100 -86 -100 -95 -161 -122 -278 -122 -103 0 -145 15 -247
87 -87 62 -121 77 -168 77 -39 0 -42 -2 -60 -43 -11 -24 -26 -84 -34 -135 -20
-121 -34 -167 -62 -193 -21 -20 -27 -21 -101 -11 -43 6 -97 8 -120 5 -35 -5
-43 -2 -53 16 -15 30 -69 61 -103 61 -16 0 -79 -22 -140 -49 -214 -93 -384
-131 -521 -116 -108 11 -159 59 -197 189 -47 158 -70 179 -191 175 -78 -3 -83
-2 -79 16 12 65 11 143 -3 210 -22 105 -20 166 5 220 27 58 74 98 103 89 60
-18 106 -104 106 -196 0 -52 -10 -79 -43 -115 -54 -60 40 -218 119 -199 21 6
24 12 24 48 l0 41 -24 -22 c-22 -21 -27 -22 -52 -9 -47 23 -51 41 -25 100 36
82 43 124 32 184 -21 114 -98 214 -166 214 -44 0 -96 -59 -120 -137 -17 -54
-17 -63 -1 -163 20 -128 21 -192 2 -228 -18 -34 -58 -57 -83 -47 -10 4 -26 9
-36 10 -21 2 -42 27 -67 80 -30 65 -33 117 -15 228 29 178 27 175 103 209 115
52 120 63 75 205 -24 79 -25 91 -15 156 6 39 25 98 42 134 102 207 434 403
682 403 96 0 175 -37 123 -57 -24 -9 -45 -57 -45 -103 0 -38 29 -174 35 -168
2 2 -2 37 -7 78 -10 65 -9 80 6 111 21 44 71 74 112 66 34 -6 79 15 95 44 9
17 17 20 47 16 138 -20 139 -20 151 2 6 11 16 43 21 72 5 28 20 64 31 81 47
65 190 128 291 128 89 0 126 -18 205 -97 77 -76 102 -88 178 -81 l40 3 -42 13
c-28 8 -69 36 -115 78 -96 87 -160 117 -258 121 -45 2 -96 -3 -127 -12z
m-1235 -1766 c35 -12 56 -54 67 -139 4 -30 15 -69 25 -87 17 -28 18 -40 8 -91
-8 -41 -8 -70 0 -98 l10 -39 1 60 c2 74 9 105 27 105 7 0 32 -13 56 -29 24
-16 54 -32 68 -36 45 -14 51 -24 33 -59 -20 -38 -29 -158 -15 -206 9 -31 10
-27 11 43 1 82 16 123 63 178 24 28 32 29 302 56 l59 6 -6 -99 c-7 -129 -35
-218 -87 -276 -57 -66 -99 -80 -201 -68 -115 13 -186 35 -194 61 -5 15 -10 18
-20 9 -17 -14 -36 -5 -126 61 -169 124 -279 295 -320 494 -11 54 -18 104 -15
111 3 8 18 14 33 14 15 0 57 9 93 19 78 23 88 24 128 10z m1041 -233 c30 -16
61 -56 61 -80 0 -25 -59 -147 -106 -217 -57 -87 -127 -149 -216 -194 -61 -30
-108 -44 -108 -31 0 2 9 23 19 47 13 29 23 87 30 167 11 138 28 186 77 217 17
11 35 29 40 40 24 52 142 82 203 51z"/>
<path d="M5301 1044 c0 -11 3 -14 6 -6 3 7 2 16 -1 19 -3 4 -6 -2 -5 -13z"/>
<path d="M1649 3165 c-6 -5 -244 -36 -529 -67 -178 -20 -245 -22 -515 -20
-214 3 -333 0 -386 -9 -77 -12 -77 -13 -84 -46 -7 -36 28 -239 71 -416 44
-183 58 -315 58 -562 0 -126 -6 -279 -13 -340 -34 -295 -101 -613 -182 -861
-22 -69 -38 -128 -36 -131 11 -10 59 70 86 143 35 95 125 497 152 679 54 356
31 848 -62 1309 -16 82 -27 151 -24 154 3 4 146 5 318 3 391 -3 590 10 971 65
149 22 180 24 187 13 5 -8 20 -50 34 -95 113 -364 133 -857 59 -1443 -38 -303
-88 -531 -174 -785 -61 -184 -63 -185 -189 -141 -79 28 -380 84 -596 111 -244
31 -667 21 -690 -16 -3 -4 93 -7 213 -6 236 1 292 -5 292 -32 0 -9 -50 -77
-110 -151 -61 -74 -110 -139 -110 -143 0 -5 15 -6 34 -3 25 5 101 -12 302 -69
440 -124 702 -178 1022 -212 40 -4 65 -11 69 -20 4 -10 16 -6 49 18 39 28 42
33 30 47 -16 18 -8 49 19 71 21 18 78 16 146 -4 29 -9 83 -16 121 -16 63 0 69
-2 80 -25 10 -22 8 -29 -12 -50 -32 -34 -17 -44 28 -20 42 23 51 48 27 74 -15
17 -14 24 15 97 17 44 63 140 102 214 137 265 188 409 206 580 5 47 9 86 8 87
-1 1 -14 -14 -30 -33 -22 -27 -35 -65 -56 -162 -49 -218 -112 -402 -205 -599
-63 -133 -71 -138 -185 -129 -92 6 -210 41 -210 61 0 21 75 181 89 189 6 4 33
-6 60 -23 30 -19 61 -31 82 -31 40 0 119 34 119 51 0 12 -11 10 -89 -13 -40
-12 -46 -11 -89 13 -25 14 -50 32 -55 40 -6 10 4 46 33 114 23 55 46 104 50
109 5 5 27 2 52 -6 68 -23 188 -3 188 32 0 4 -25 3 -55 -3 -66 -11 -138 -2
-156 19 -10 13 -8 31 15 102 16 48 32 92 37 98 6 7 29 9 60 6 56 -5 94 9 111
43 11 20 11 20 -10 1 -17 -15 -30 -17 -63 -12 -56 9 -81 24 -75 44 3 9 10 62
16 117 6 55 17 109 25 122 14 20 20 21 103 16 77 -5 90 -3 107 13 18 19 17 19
-77 24 -53 3 -100 8 -104 12 -6 7 30 269 45 317 6 21 13 24 68 25 59 2 113 24
113 46 0 11 -23 12 -97 1 -29 -4 -57 -4 -63 -1 -6 4 -12 46 -13 97 -2 110 12
135 69 126 27 -5 40 -1 59 17 39 37 31 43 -45 38 l-70 -5 1 106 c1 58 4 144 7
191 l7 85 46 11 c61 15 103 38 128 70 28 35 21 40 -29 20 -67 -27 -118 -35
-134 -22 -11 8 -15 46 -18 166 l-3 155 59 7 c32 4 109 19 171 33 62 14 118 25
124 25 26 0 33 -61 33 -315 0 -306 -28 -668 -72 -940 -13 -76 -30 -234 -29
-260 1 -11 12 14 25 55 50 154 82 320 105 545 14 137 17 638 5 828 l-8 127
-45 0 c-24 0 -92 -11 -151 -24 -157 -35 -200 -40 -217 -26 -11 10 -15 36 -15
112 0 85 -2 99 -15 94 -37 -14 -197 -60 -385 -110 -183 -49 -206 -54 -217 -39
-7 8 -22 59 -34 112 -12 53 -26 106 -32 119 -9 20 -36 30 -48 17z m704 -245
c14 -110 13 -769 -2 -945 -48 -587 -161 -1085 -347 -1519 -73 -171 -149 -315
-170 -323 -47 -18 -512 50 -769 111 -246 59 -586 158 -592 172 -6 17 51 105
126 192 61 70 63 72 109 72 81 0 268 -28 472 -71 107 -23 223 -43 256 -46 59
-5 63 -4 101 30 80 72 125 204 203 584 72 355 117 455 150 332 9 -32 15 -40
32 -37 11 2 27 13 36 26 13 20 13 22 0 17 -9 -4 -25 7 -42 30 -20 26 -34 35
-57 35 -35 0 -34 -2 -19 215 19 272 18 268 47 260 19 -4 31 0 50 22 l26 27 21
-27 c27 -34 36 -34 70 2 25 26 31 28 53 18 19 -8 30 -7 51 5 36 20 50 14 58
-28 7 -38 18 -43 34 -15 15 29 12 77 -6 96 -15 14 -18 14 -40 0 -31 -20 -46
-19 -75 6 l-24 21 -27 -33 c-26 -31 -28 -32 -46 -16 -21 19 -57 23 -67 7 -10
-16 -36 -12 -50 7 -11 14 -15 15 -28 4 -9 -7 -21 -10 -27 -6 -13 8 -13 98 0
187 8 54 7 77 -5 110 -9 24 -29 122 -45 218 -23 137 -27 177 -17 187 7 6 63
21 125 33 116 21 341 82 370 100 10 5 26 9 37 7 17 -2 21 -13 28 -67z"/>
<path d="M2160 2459 c-15 -27 -6 -60 27 -99 l26 -32 18 24 c28 36 24 72 -12
102 -37 31 -45 32 -59 5z"/>
<path d="M1921 2447 c-19 -24 -26 -93 -11 -102 13 -8 41 18 54 48 5 12 38 -18
50 -46 7 -18 46 30 46 59 0 14 -10 30 -25 40 -25 16 -27 16 -49 -5 l-23 -22
-14 22 c-13 19 -16 20 -28 6z"/>
<path d="M2020 1870 c-13 -8 -13 -10 2 -10 9 0 28 -14 41 -32 24 -29 27 -31
55 -19 20 8 49 10 86 6 40 -5 56 -4 56 4 0 20 -67 42 -108 35 -28 -4 -41 -2
-51 10 -15 18 -58 21 -81 6z"/>
<path d="M1930 1851 c-25 -3 -45 -10 -45 -16 0 -18 39 -15 80 4 42 20 38 22
-35 12z"/>
<path d="M2014 1565 c-18 -14 -18 -14 7 -15 14 0 36 -11 49 -25 30 -32 61 -32
100 1 37 31 35 38 -7 22 -26 -10 -35 -8 -65 10 -42 26 -57 27 -84 7z"/>
<path d="M1980 1275 c-17 -10 -40 -13 -76 -9 -45 5 -54 3 -83 -22 l-32 -27 44
-19 45 -20 47 27 c38 23 54 27 89 22 35 -5 47 -3 61 13 10 11 15 26 12 35 -8
19 -73 20 -107 0z"/>
<path d="M1879 856 c-25 -7 -58 -22 -74 -34 -18 -14 -42 -22 -69 -22 -46 0
-72 -12 -62 -29 12 -19 79 -12 134 14 63 29 79 31 103 9 17 -15 20 -15 44 0
27 18 32 45 13 64 -15 15 -29 14 -89 -2z"/>
<path d="M1643 585 l-28 -24 41 -1 c27 0 54 -9 79 -26 33 -22 41 -24 62 -13
37 20 29 47 -19 69 -59 27 -101 25 -135 -5z"/>
<path d="M707 553 c-13 -12 -7 -23 24 -38 34 -18 100 -17 106 2 9 26 -108 59
-130 36z"/>
<path d="M938 527 c23 -28 103 -47 259 -62 186 -18 197 -20 252 -59 36 -26 53
-31 100 -31 39 -1 74 -9 115 -28 59 -27 80 -28 70 -2 -9 21 -63 42 -143 54
-41 7 -106 26 -145 43 -42 18 -100 34 -145 40 -42 5 -114 18 -161 29 -47 11
-114 23 -150 26 -59 6 -64 5 -52 -10z"/>
<path d="M5220 2773 c-48 -18 -90 -104 -76 -158 10 -39 22 -30 35 29 15 68 48
101 100 101 71 0 98 -46 107 -182 11 -170 27 -213 78 -213 17 0 56 55 56 78 0
18 -21 15 -46 -9 -34 -32 -44 -16 -44 69 0 84 -20 177 -48 224 -31 54 -105 82
-162 61z"/>
<path d="M1232 2693 c-15 -27 7 -108 28 -108 24 0 25 76 2 105 -19 24 -19 24
-30 3z"/>
<path d="M1334 2674 c-5 -19 1 -34 23 -62 38 -46 68 -53 84 -18 11 24 9 29
-32 65 -52 47 -66 50 -75 15z"/>
<path d="M637 2683 c-24 -23 8 -143 34 -128 14 9 11 73 -6 105 -17 32 -18 33
-28 23z"/>
<path d="M1038 2665 c-12 -28 -28 -31 -58 -13 -16 10 -24 9 -49 -9 l-29 -22
-16 24 c-20 30 -62 34 -71 6 -3 -12 6 -30 28 -55 39 -42 43 -43 72 -16 20 18
26 19 50 8 25 -11 29 -10 51 15 27 32 50 35 59 7 15 -46 85 -62 85 -19 0 26
-68 99 -91 99 -11 0 -24 -11 -31 -25z"/>
<path d="M1542 2678 c-20 -20 -14 -36 25 -62 40 -27 63 -21 63 15 0 42 -61 74
-88 47z"/>
<path d="M412 2663 c-13 -24 -15 -56 -6 -90 9 -33 47 -30 72 5 l21 27 35 -34
c28 -27 39 -32 48 -23 20 20 -41 112 -75 112 -4 0 -19 -12 -32 -26 l-25 -26
-8 23 c-5 13 -11 31 -14 39 -4 12 -7 10 -16 -7z"/>
<path d="M742 2603 c2 -31 7 -39 26 -41 26 -4 26 -4 7 42 -20 47 -37 46 -33
-1z"/>
<path d="M5812 2605 c3 -11 18 -60 32 -110 50 -167 44 -266 -19 -325 -63 -59
-199 7 -234 113 -19 56 18 127 66 127 29 0 31 25 3 40 -50 27 -90 -39 -90
-148 l0 -69 -64 -32 c-108 -53 -149 -142 -124 -276 l13 -70 5 90 c7 103 23
146 70 192 56 54 112 53 221 -3 83 -43 153 -25 190 48 19 37 21 54 16 138 -4
76 -12 114 -41 194 -33 92 -57 140 -44 91z"/>
<path d="M1219 2403 c-10 -28 -4 -95 13 -126 9 -18 10 -18 29 -1 16 15 19 25
13 63 -13 91 -35 116 -55 64z"/>
<path d="M697 2403 c-21 -20 9 -93 38 -93 8 0 19 9 26 21 9 18 7 26 -17 50
-29 30 -36 34 -47 22z"/>
<path d="M956 2395 c-9 -24 33 -107 52 -103 23 4 28 63 7 94 -17 27 -50 32
-59 9z"/>
<path d="M820 2368 c0 -18 9 -48 20 -66 17 -28 23 -32 35 -22 20 17 19 33 -5
80 -25 50 -50 53 -50 8z"/>
<path d="M1487 2383 c-13 -12 -7 -54 13 -93 23 -45 34 -49 50 -20 25 46 -31
146 -63 113z"/>
<path d="M489 2356 c-11 -24 -10 -29 9 -48 l22 -22 23 22 c28 26 35 27 59 6
14 -14 20 -14 33 -4 21 17 19 33 -6 56 -20 18 -21 18 -59 -4 l-39 -22 -15 22
-15 21 -12 -27z"/>
<path d="M1350 2348 c0 -42 13 -63 34 -55 19 7 22 57 4 75 -22 22 -38 13 -38
-20z"/>
<path d="M466 2158 c-8 -30 -6 -126 3 -158 9 -32 38 -33 59 -2 13 20 13 22 -1
16 -24 -9 -37 27 -37 100 0 65 -12 87 -24 44z"/>
<path d="M590 2065 c-10 -13 -9 -15 9 -15 22 0 34 -20 45 -72 7 -30 27 -36 45
-15 8 10 6 23 -9 52 -11 22 -20 45 -20 52 0 18 -55 16 -70 -2z"/>
<path d="M800 2048 c0 -41 29 -118 45 -118 19 0 48 37 36 45 -6 3 -11 17 -11
29 0 28 -36 76 -56 76 -9 0 -14 -11 -14 -32z"/>
<path d="M960 2027 c0 -26 28 -57 51 -57 9 0 24 6 34 14 18 13 18 14 -2 20
-11 4 -28 15 -38 26 -24 27 -45 25 -45 -3z"/>
<path d="M1102 2038 c-18 -18 -15 -24 22 -42 47 -22 88 -20 121 6 27 21 28 21
58 3 25 -15 61 -20 177 -25 80 -3 150 -9 157 -13 6 -4 14 -3 17 2 3 5 -24 21
-62 36 -62 25 -74 27 -155 21 -60 -5 -99 -3 -122 5 -29 11 -39 10 -69 -6 -35
-19 -35 -19 -79 3 -52 26 -50 25 -65 10z"/>
<path d="M5695 1819 c-14 -18 -37 -54 -51 -80 -13 -27 -32 -53 -43 -58 -30
-16 -88 6 -132 50 -27 27 -37 33 -29 17 24 -45 62 -89 86 -98 35 -14 60 -1
142 73 41 37 82 69 92 72 49 16 90 -47 90 -137 0 -67 -28 -128 -71 -160 -46
-34 -81 -41 -128 -24 -38 13 -40 13 -30 -5 24 -46 117 -66 164 -35 57 38 103
175 89 268 -20 130 -115 192 -179 117z"/>
<path d="M520 1730 c-6 -12 -10 -32 -8 -46 l3 -25 34 25 c45 34 85 34 107 1
20 -31 34 -31 62 -2 27 29 28 37 2 30 -12 -3 -29 2 -40 12 -19 17 -31 17 -102
-1 -22 -5 -28 -3 -28 10 0 22 -17 20 -30 -4z"/>
<path d="M906 1714 c-23 -13 -34 -14 -54 -5 -29 14 -46 3 -36 -22 8 -23 36
-21 78 4 35 20 36 20 150 3 99 -15 120 -15 143 -4 27 13 25 14 -57 26 -117 17
-189 16 -224 -2z"/>
<path d="M1373 1723 c-25 -10 -12 -31 22 -37 36 -7 84 10 69 24 -12 10 -76 20
-91 13z"/>
<path d="M1610 1661 c-23 -44 -2 -75 31 -45 26 23 26 64 -1 64 -10 0 -24 -9
-30 -19z"/>
<path d="M502 1447 c-19 -22 -42 -85 -42 -112 0 -23 3 -25 23 -18 12 4 50 6
83 5 50 -1 67 2 85 18 l24 20 -84 -1 c-94 -2 -99 1 -81 57 13 39 9 52 -8 31z"/>
<path d="M757 1356 c-11 -29 18 -38 64 -19 l44 18 -30 6 c-51 11 -73 10 -78
-5z"/>
<path d="M935 1334 c29 -26 31 -27 126 -21 92 5 103 3 195 -29 95 -33 167 -43
179 -25 3 5 -20 15 -51 21 -31 7 -82 21 -113 32 -38 14 -97 23 -186 28 -71 4
-141 11 -155 14 -25 7 -24 7 5 -20z"/>
<path d="M1517 1254 c-9 -10 12 -34 30 -34 19 0 12 34 -8 38 -8 1 -18 0 -22
-4z"/>
<path d="M484 1125 c-7 -19 -14 -46 -14 -60 0 -23 3 -25 23 -19 12 5 36 7 52
6 17 -1 69 -3 117 -5 53 -1 92 -7 99 -14 17 -17 41 -16 64 1 16 12 7 15 -81
31 -54 10 -128 19 -164 20 l-65 1 2 37 c3 47 -14 48 -33 2z"/>
<path d="M361 1087 c-34 -17 -38 -37 -9 -37 31 0 63 23 54 38 -9 15 -15 15
-45 -1z"/>
<path d="M995 1040 c-10 -16 4 -30 29 -30 34 0 87 21 80 31 -7 12 -101 11
-109 -1z"/>
<path d="M1296 1011 c-18 -29 48 -61 126 -61 59 0 101 17 106 41 4 24 -23 30
-74 18 -41 -11 -78 -9 -130 6 -12 4 -25 2 -28 -4z"/>
</g>
</svg>
